<?xml version="1.0" encoding="UTF-8"?>
<svg xmlns="http://www.w3.org/2000/svg" xmlns:xlink="http://www.w3.org/1999/xlink" width="208pt" height="208pt" viewBox="0 0 208 208" version="1.1">
<g id="surface1">
<path style=" stroke:none;fill-rule:nonzero;fill:#FFFFFF;fill-opacity:1;" d="M 55.152344 23.636719 C 37.730469 23.636719 23.636719 37.730469 23.636719 55.152344 L 23.636719 149.695313 C 23.636719 167.117188 37.730469 181.210938 55.152344 181.210938 L 149.695313 181.210938 C 167.117188 181.210938 181.210938 167.117188 181.210938 149.695313 L 181.210938 55.152344 C 181.210938 37.730469 167.117188 23.636719 149.695313 23.636719 Z M 55.152344 39.394531 L 149.695313 39.394531 C 159.082031 39.394531 165.453125 45.765625 165.453125 55.152344 L 165.453125 149.695313 C 165.453125 159.082031 159.082031 165.453125 149.695313 165.453125 L 55.152344 165.453125 C 45.765625 165.453125 39.394531 159.082031 39.394531 149.695313 L 39.394531 55.152344 C 39.394531 45.765625 45.765625 39.394531 55.152344 39.394531 Z M 103.902344 70.171875 C 95.222656 70.171875 78.789063 73.308594 78.789063 105.625 C 78.789063 127.691406 86.667969 138.617188 102.425781 138.617188 C 109.503906 138.617188 126 134.617188 126.800781 103.902344 C 126.800781 81.066406 119.660156 70.171875 103.902344 70.171875 Z M 102.425781 81.25 C 108.734375 81.25 111.042969 88.945313 111.042969 103.902344 C 111.042969 118.859375 108.734375 126.800781 102.425781 126.800781 C 96.113281 126.800781 93.066406 119.84375 93.066406 104.886719 C 93.066406 89.128906 96.113281 81.25 102.425781 81.25 Z "/>
</g>
</svg>
