<?xml version="1.0" encoding="UTF-8"?>
<svg xmlns="http://www.w3.org/2000/svg" xmlns:xlink="http://www.w3.org/1999/xlink" width="208pt" height="208pt" viewBox="0 0 208 208" version="1.1">
<g id="surface1">
<path style=" stroke:none;fill-rule:nonzero;fill:#FFFFFF;fill-opacity:1;" d="M 55.152344 23.636719 C 37.730469 23.636719 23.636719 37.730469 23.636719 55.152344 L 23.636719 149.695313 C 23.636719 167.117188 37.730469 181.210938 55.152344 181.210938 L 149.695313 181.210938 C 167.117188 181.210938 181.210938 167.117188 181.210938 149.695313 L 181.210938 55.152344 C 181.210938 37.730469 167.117188 23.636719 149.695313 23.636719 Z M 55.152344 39.394531 L 149.695313 39.394531 C 159.082031 39.394531 165.453125 45.765625 165.453125 55.152344 L 165.453125 149.695313 C 165.453125 159.082031 159.082031 165.453125 149.695313 165.453125 L 55.152344 165.453125 C 45.765625 165.453125 39.394531 159.082031 39.394531 149.695313 L 39.394531 55.152344 C 39.394531 45.765625 45.765625 39.394531 55.152344 39.394531 Z M 103.164063 70.171875 C 96.085938 70.171875 88.976563 71.648438 83.464844 75.585938 L 83.464844 89.128906 C 88.976563 84.390625 94.453125 81.988281 99.960938 81.988281 C 110.980469 81.988281 110.394531 92.175781 108.824219 94.546875 C 100.148438 109.503906 80.265625 111.195313 80.265625 132.460938 L 80.265625 137.140625 L 124.582031 137.140625 L 124.582031 125.320313 L 96.023438 125.320313 C 96.023438 117.441406 124.582031 110.394531 124.582031 89.128906 C 124.582031 72.570313 109.472656 70.171875 103.164063 70.171875 Z "/>
</g>
</svg>
