<?xml version="1.0" encoding="UTF-8"?>
<svg xmlns="http://www.w3.org/2000/svg" xmlns:xlink="http://www.w3.org/1999/xlink" width="208pt" height="208pt" viewBox="0 0 208 208" version="1.1">
<g id="surface1">
<path style=" stroke:none;fill-rule:nonzero;fill:#FFFFFF;fill-opacity:1;" d="M 55.152344 23.636719 C 37.730469 23.636719 23.636719 37.730469 23.636719 55.152344 L 23.636719 149.695313 C 23.636719 167.117188 37.730469 181.210938 55.152344 181.210938 L 149.695313 181.210938 C 167.117188 181.210938 181.210938 167.117188 181.210938 149.695313 L 181.210938 55.152344 C 181.210938 37.730469 167.117188 23.636719 149.695313 23.636719 Z M 55.152344 39.394531 L 149.695313 39.394531 C 159.082031 39.394531 165.453125 45.765625 165.453125 55.152344 L 165.453125 149.695313 C 165.453125 159.082031 159.082031 165.453125 149.695313 165.453125 L 55.152344 165.453125 C 45.765625 165.453125 39.394531 159.082031 39.394531 149.695313 L 39.394531 55.152344 C 39.394531 45.765625 45.765625 39.394531 55.152344 39.394531 Z M 97.007813 70.171875 C 92.574219 70.507813 88.730469 71.585938 85.1875 73.371094 L 85.1875 85.1875 C 89.128906 82.820313 93.007813 81.25 97.746094 81.25 C 104.824219 81.25 107.839844 83.621094 107.839844 89.128906 C 107.839844 94.636719 103.964844 97.746094 95.285156 97.746094 L 89.867188 97.746094 L 89.867188 108.824219 L 96.023438 108.824219 C 99.960938 108.824219 110.304688 110.304688 110.304688 118.183594 C 110.304688 126.0625 102.425781 126.800781 98.484375 126.800781 C 92.175781 126.800781 87.46875 125.261719 82.726563 122.121094 L 82.726563 134.679688 C 87.46875 137.046875 92.914063 138.617188 99.222656 138.617188 C 107.101563 138.617188 124.582031 136.246094 124.582031 118.921875 C 124.582031 107.101563 114.304688 103.964844 109.5625 103.164063 C 118.242188 100.792969 122.859375 95.34375 122.859375 86.667969 C 122.859375 72.480469 108.765625 70.171875 101.6875 70.171875 C 100.117188 70.171875 98.484375 70.046875 97.007813 70.171875 Z "/>
</g>
</svg>
