<?xml version="1.0" encoding="UTF-8"?>
<svg xmlns="http://www.w3.org/2000/svg" xmlns:xlink="http://www.w3.org/1999/xlink" width="208pt" height="208pt" viewBox="0 0 208 208" version="1.1">
<g id="surface1">
<path style=" stroke:none;fill-rule:nonzero;fill:#FFFFFF;fill-opacity:1;" d="M 55.152344 23.636719 C 37.730469 23.636719 23.636719 37.730469 23.636719 55.152344 L 23.636719 149.695313 C 23.636719 167.117188 37.730469 181.210938 55.152344 181.210938 L 149.695313 181.210938 C 167.117188 181.210938 181.210938 167.117188 181.210938 149.695313 L 181.210938 55.152344 C 181.210938 37.730469 167.117188 23.636719 149.695313 23.636719 Z M 55.152344 39.394531 L 149.695313 39.394531 C 159.082031 39.394531 165.453125 45.765625 165.453125 55.152344 L 165.453125 149.695313 C 165.453125 159.082031 159.082031 165.453125 149.695313 165.453125 L 55.152344 165.453125 C 45.765625 165.453125 39.394531 159.082031 39.394531 149.695313 L 39.394531 55.152344 C 39.394531 45.765625 45.765625 39.394531 55.152344 39.394531 Z M 101.6875 70.171875 C 93.007813 88.296875 75.742188 107.902344 73.371094 111.042969 L 73.371094 122.121094 L 101.6875 122.121094 L 101.6875 135.417969 L 114.980469 135.417969 L 114.980469 122.121094 L 122.859375 122.121094 L 122.859375 111.042969 L 114.980469 111.042969 L 114.980469 70.171875 Z M 101.6875 88.144531 L 101.6875 111.042969 L 85.929688 111.042969 C 87.496094 109.472656 96.175781 99.160156 101.6875 88.144531 Z "/>
</g>
</svg>
