<?xml version="1.0" encoding="UTF-8"?>
<svg xmlns="http://www.w3.org/2000/svg" xmlns:xlink="http://www.w3.org/1999/xlink" width="208pt" height="208pt" viewBox="0 0 208 208" version="1.1">
<g id="surface1">
<path style=" stroke:none;fill-rule:nonzero;fill:#FFFFFF;fill-opacity:1;" d="M 23.636719 0 C 10.585938 0 0 10.585938 0 23.636719 L 0 149.695313 C 0 162.746094 10.585938 173.332031 23.636719 173.332031 L 98.238281 173.332031 C 96.914063 168.285156 96.023438 163.023438 96.023438 157.574219 L 23.636719 157.574219 C 19.296875 157.574219 15.757813 154.035156 15.757813 149.695313 L 15.757813 47.273438 C 15.757813 42.933594 19.296875 39.394531 23.636719 39.394531 L 173.332031 39.394531 C 177.671875 39.394531 181.210938 42.933594 181.210938 47.273438 L 181.210938 100.699219 C 186.96875 103.101563 192.261719 106.394531 196.96875 110.304688 L 196.96875 47.273438 C 196.96875 34.222656 186.382813 23.636719 173.332031 23.636719 L 86.667969 23.636719 C 86.667969 10.585938 76.078125 0 63.03125 0 Z M 157.574219 111.78125 C 132.277344 111.78125 111.78125 132.277344 111.78125 157.574219 C 111.78125 182.875 132.277344 203.371094 157.574219 203.371094 C 182.875 203.371094 203.371094 182.875 203.371094 157.574219 C 203.371094 132.277344 182.875 111.78125 157.574219 111.78125 Z M 149.695313 133.9375 L 165.453125 133.9375 L 165.453125 149.695313 L 181.210938 149.695313 L 181.210938 165.453125 L 165.453125 165.453125 L 165.453125 181.210938 L 149.695313 181.210938 L 149.695313 165.453125 L 133.9375 165.453125 L 133.9375 149.695313 L 149.695313 149.695313 Z "/>
</g>
</svg>
