<?xml version="1.0" encoding="UTF-8"?>
<svg xmlns="http://www.w3.org/2000/svg" xmlns:xlink="http://www.w3.org/1999/xlink" width="208pt" height="208pt" viewBox="0 0 208 208" version="1.1">
<g id="surface1">
<path style=" stroke:none;fill-rule:nonzero;fill:#FFFFFF;fill-opacity:1;" d="M 23.636719 15.757813 C 10.585938 15.757813 0 26.34375 0 39.394531 L 0 173.332031 C 0 186.382813 10.585938 196.96875 23.636719 196.96875 L 181.210938 196.96875 C 194.261719 196.96875 204.847656 186.382813 204.847656 173.332031 L 204.847656 63.03125 C 204.847656 49.980469 194.261719 39.394531 181.210938 39.394531 L 86.667969 39.394531 C 86.667969 26.34375 76.078125 15.757813 63.03125 15.757813 Z M 23.636719 55.152344 L 181.210938 55.152344 C 185.550781 55.152344 189.089844 58.691406 189.089844 63.03125 L 189.089844 173.332031 C 189.089844 177.671875 185.550781 181.210938 181.210938 181.210938 L 23.636719 181.210938 C 19.296875 181.210938 15.757813 177.671875 15.757813 173.332031 L 15.757813 63.03125 C 15.757813 58.691406 19.296875 55.152344 23.636719 55.152344 Z "/>
</g>
</svg>
