<?xml version="1.0" encoding="UTF-8"?>
<svg xmlns="http://www.w3.org/2000/svg" xmlns:xlink="http://www.w3.org/1999/xlink" width="208pt" height="208pt" viewBox="0 0 208 208" version="1.1">
<g id="surface1">
<path style=" stroke:none;fill-rule:nonzero;fill:#FFFFFF;fill-opacity:1;" d="M 102.425781 48.503906 C 62.875 48.503906 25.914063 68.171875 3.691406 100.945313 C -0.460938 107.101563 1.261719 115.257813 7.386719 119.414063 C 9.695313 120.984375 12.1875 121.875 14.773438 121.875 C 19.082031 121.875 23.511719 119.78125 26.097656 115.964844 C 26.929688 114.734375 27.945313 113.6875 28.808594 112.519531 C 39.363281 143.078125 68.261719 164.960938 102.425781 164.960938 C 136.585938 164.960938 165.484375 143.078125 176.042969 112.519531 C 176.902344 113.6875 177.917969 114.734375 178.75 115.964844 C 182.875 122.089844 191.308594 123.566406 197.460938 119.414063 C 203.585938 115.257813 205.308594 107.070313 201.15625 100.945313 C 178.964844 68.140625 141.972656 48.503906 102.425781 48.503906 Z M 102.425781 77.0625 C 116.367188 77.0625 127.785156 88.453125 127.785156 102.425781 C 127.785156 116.398438 116.367188 127.785156 102.425781 127.785156 C 88.484375 127.785156 77.0625 116.367188 77.0625 102.425781 C 77.0625 88.484375 88.484375 77.0625 102.425781 77.0625 Z M 133.691406 80.757813 C 146.835938 85.464844 158.5625 93.285156 168.410156 103.410156 C 161.054688 133.015625 134.277344 155.113281 102.425781 155.113281 C 70.570313 155.113281 43.796875 133.015625 36.4375 103.410156 C 46.226563 93.34375 58.105469 85.742188 71.15625 81.003906 C 66.9375 87.097656 64.507813 94.453125 64.507813 102.425781 C 64.507813 123.382813 81.496094 140.339844 102.425781 140.339844 C 123.351563 140.339844 140.339844 123.382813 140.339844 102.425781 C 140.339844 94.390625 137.972656 86.882813 133.691406 80.757813 Z "/>
</g>
</svg>
