<?xml version="1.0" encoding="UTF-8"?>
<svg xmlns="http://www.w3.org/2000/svg" xmlns:xlink="http://www.w3.org/1999/xlink" width="208pt" height="208pt" viewBox="0 0 208 208" version="1.1">
<g id="surface1">
<path style=" stroke:none;fill-rule:nonzero;fill:#FFFFFF;fill-opacity:1;" d="M 126.0625 39.394531 C 121.722656 39.394531 118.183594 42.933594 118.183594 47.273438 L 118.183594 85.683594 L 62.292969 41.363281 C 59.121094 39.761719 55.214844 40.007813 52.195313 41.855469 C 49.148438 43.671875 47.273438 46.964844 47.273438 50.472656 L 47.273438 154.375 C 47.273438 157.851563 49.148438 161.144531 52.195313 162.992188 C 53.828125 163.976563 55.734375 164.46875 57.613281 164.46875 C 59.183594 164.46875 60.84375 164.222656 62.292969 163.484375 L 118.183594 119.167969 L 118.183594 157.574219 C 118.183594 161.914063 121.722656 165.453125 126.0625 165.453125 L 149.695313 165.453125 C 154.035156 165.453125 157.574219 161.914063 157.574219 157.574219 L 157.574219 47.273438 C 157.574219 42.933594 154.035156 39.394531 149.695313 39.394531 Z "/>
</g>
</svg>
