<?xml version="1.0" encoding="UTF-8"?>
<svg xmlns="http://www.w3.org/2000/svg" xmlns:xlink="http://www.w3.org/1999/xlink" width="208pt" height="208pt" viewBox="0 0 208 208" version="1.1">
<g id="surface1">
<path style=" stroke:none;fill-rule:nonzero;fill:#FFFFFF;fill-opacity:1;" d="M 23.636719 23.636719 C 10.585938 23.636719 0 34.222656 0 47.273438 L 0 157.574219 C 0 165.730469 4.277344 172.808594 10.585938 177.027344 C 11.570313 177.671875 12.464844 178.257813 13.542969 178.75 C 13.847656 178.933594 14.1875 179.089844 14.527344 179.242188 C 17.265625 180.503906 20.25 181.210938 23.390625 181.210938 L 149.449219 181.210938 C 162.070313 181.210938 173.855469 173.609375 178.75 162.007813 L 178.75 161.761719 L 203.125 96.269531 L 203.125 96.023438 C 205.464844 90.265625 205.527344 83.589844 202.140625 78.542969 C 198.722656 73.402344 192.445313 70.910156 186.136719 70.910156 L 173.332031 70.910156 C 173.332031 57.859375 162.746094 47.273438 149.695313 47.273438 L 86.667969 47.273438 C 86.667969 34.222656 76.078125 23.636719 63.03125 23.636719 Z M 60.074219 86.667969 L 186.136719 86.667969 C 188.535156 86.667969 189.03125 87.3125 189.089844 87.40625 C 189.152344 87.496094 189.523438 87.929688 188.597656 90.113281 L 188.597656 90.605469 L 164.222656 155.851563 L 163.976563 156.097656 C 161.945313 160.40625 154.160156 165.453125 149.449219 165.453125 L 23.390625 165.453125 C 20.988281 165.453125 20.742188 164.808594 20.683594 164.714844 C 20.621094 164.625 20.25 164.191406 21.175781 162.007813 L 21.175781 161.761719 L 45.550781 96.269531 C 45.578125 96.175781 45.765625 96.113281 45.796875 96.023438 C 47.828125 91.714844 55.367188 86.667969 60.074219 86.667969 Z "/>
</g>
</svg>
