<?xml version="1.0" encoding="UTF-8"?>
<svg xmlns="http://www.w3.org/2000/svg" xmlns:xlink="http://www.w3.org/1999/xlink" width="208pt" height="208pt" viewBox="0 0 208 208" version="1.1">
<g id="surface1">
<path style=" stroke:none;fill-rule:nonzero;fill:#FFFFFF;fill-opacity:1;" d="M 55.152344 39.394531 C 50.8125 39.394531 47.273438 42.933594 47.273438 47.273438 L 47.273438 157.574219 C 47.273438 161.914063 50.8125 165.453125 55.152344 165.453125 L 78.789063 165.453125 C 83.128906 165.453125 86.667969 161.914063 86.667969 157.574219 L 86.667969 47.273438 C 86.667969 42.933594 83.128906 39.394531 78.789063 39.394531 Z M 126.0625 39.394531 C 121.722656 39.394531 118.183594 42.933594 118.183594 47.273438 L 118.183594 157.574219 C 118.183594 161.914063 121.722656 165.453125 126.0625 165.453125 L 149.695313 165.453125 C 154.035156 165.453125 157.574219 161.914063 157.574219 157.574219 L 157.574219 47.273438 C 157.574219 42.933594 154.035156 39.394531 149.695313 39.394531 Z "/>
</g>
</svg>
