<?xml version="1.0" encoding="UTF-8"?>
<svg xmlns="http://www.w3.org/2000/svg" xmlns:xlink="http://www.w3.org/1999/xlink" width="208pt" height="208pt" viewBox="0 0 208 208" version="1.1">
<g id="surface1">
<path style=" stroke:none;fill-rule:nonzero;fill:#FFFFFF;fill-opacity:1;" d="M 55.152344 39.394531 C 50.8125 39.394531 47.273438 42.933594 47.273438 47.273438 L 47.273438 157.574219 C 47.273438 161.914063 50.8125 165.453125 55.152344 165.453125 L 78.789063 165.453125 C 83.128906 165.453125 86.667969 161.914063 86.667969 157.574219 L 86.667969 119.167969 L 142.558594 163.484375 C 145.726563 165.085938 149.636719 164.839844 152.652344 162.992188 C 155.699219 161.175781 157.574219 157.882813 157.574219 154.375 L 157.574219 50.472656 C 157.574219 46.996094 155.699219 43.703125 152.652344 41.855469 C 151.019531 40.871094 149.113281 40.378906 147.234375 40.378906 C 145.664063 40.378906 144.003906 40.625 142.558594 41.363281 L 86.667969 85.683594 L 86.667969 47.273438 C 86.667969 42.933594 83.128906 39.394531 78.789063 39.394531 Z "/>
</g>
</svg>
