<?xml version="1.0" encoding="UTF-8"?>
<svg xmlns="http://www.w3.org/2000/svg" xmlns:xlink="http://www.w3.org/1999/xlink" width="208pt" height="208pt" viewBox="0 0 208 208" version="1.1">
<g id="surface1">
<path style=" stroke:none;fill-rule:nonzero;fill:#FFFFFF;fill-opacity:1;" d="M 104.886719 15.757813 L 103.902344 31.515625 C 108.640625 31.515625 112.765625 32.191406 116.703125 32.992188 L 119.660156 17.234375 C 114.917969 16.433594 109.625 15.757813 104.886719 15.757813 Z M 87.40625 16.496094 C 81.894531 17.296875 76.417969 18.804688 70.910156 21.175781 L 76.324219 36.191406 C 81.066406 34.625 85.929688 33.054688 89.867188 32.253906 Z M 133.9375 23.636719 L 141.816406 70.171875 L 156.097656 55.890625 C 166.871094 68.355469 173.332031 84.695313 173.332031 102.425781 C 173.332031 122.246094 164.53125 140.25 151.175781 153.636719 C 148.035156 156.777344 144.28125 159.882813 140.339844 162.253906 L 148.957031 175.796875 C 152.128906 173.980469 154.652344 171.824219 157.082031 169.640625 L 157.328125 169.886719 C 176.226563 153.574219 189.089844 129.382813 189.089844 102.425781 C 189.089844 80.511719 180.84375 60.199219 167.179688 44.8125 L 180.472656 31.515625 Z M 55.152344 29.054688 C 50.410156 32.191406 45.796875 36.191406 41.855469 40.132813 L 42.101563 40.378906 C 26.097656 56.257813 15.757813 77.832031 15.757813 102.425781 C 15.757813 124.214844 23.820313 144.617188 37.671875 160.039063 L 24.375 173.332031 L 70.910156 181.210938 L 63.03125 134.679688 L 48.996094 148.710938 C 38.039063 136.277344 31.515625 120.027344 31.515625 102.425781 C 31.515625 78.972656 42.78125 59.246094 60.074219 45.550781 C 61.277344 44.59375 62.445313 43.671875 63.769531 42.59375 Z M 128.523438 167.917969 C 124.582031 169.484375 119.71875 171.054688 114.980469 171.855469 L 117.441406 187.613281 C 122.953125 186.8125 128.429688 185.058594 133.9375 182.6875 Z M 89.128906 171.855469 L 85.929688 187.613281 C 90.667969 188.414063 95.222656 189.089844 99.960938 189.089844 L 100.945313 173.332031 C 97.007813 173.332031 93.066406 172.65625 89.128906 171.855469 Z "/>
</g>
</svg>
