<?xml version="1.0" encoding="UTF-8"?>
<svg xmlns="http://www.w3.org/2000/svg" xmlns:xlink="http://www.w3.org/1999/xlink" width="208pt" height="208pt" viewBox="0 0 208 208" version="1.1">
<g id="surface1">
<path style=" stroke:none;fill-rule:nonzero;fill:#FFFFFF;fill-opacity:1;" d="M 27.574219 15.757813 C 24.621094 16.28125 22.25 18.433594 21.421875 21.296875 C 20.589844 24.191406 21.453125 27.269531 23.636719 29.300781 L 181.210938 186.875 C 183.121094 189.214844 186.167969 190.292969 189.121094 189.613281 C 192.046875 188.9375 194.355469 186.628906 195.03125 183.703125 C 195.707031 180.75 194.628906 177.703125 192.292969 175.796875 L 133.9375 117.441406 L 133.9375 26.097656 C 133.9375 16.125 125.230469 13.632813 118.429688 20.4375 L 77.3125 60.8125 L 34.714844 18.21875 C 33.085938 16.464844 30.714844 15.574219 28.3125 15.757813 C 28.066406 15.757813 27.820313 15.757813 27.574219 15.757813 Z M 39.394531 71.402344 C 35.054688 71.402344 31.515625 74.941406 31.515625 79.28125 L 31.515625 126.554688 C 31.515625 130.890625 35.054688 134.433594 39.394531 134.433594 L 66.476563 134.433594 L 118.183594 184.90625 C 126.0625 192.785156 133.9375 188.753906 133.9375 178.011719 L 133.9375 157.820313 L 47.519531 71.402344 Z "/>
</g>
</svg>
