<?xml version="1.0" encoding="UTF-8"?>
<svg xmlns="http://www.w3.org/2000/svg" xmlns:xlink="http://www.w3.org/1999/xlink" width="208pt" height="208pt" viewBox="0 0 208 208" version="1.1">
<g id="surface1">
<path style=" stroke:none;fill-rule:nonzero;fill:#FFFFFF;fill-opacity:1;" d="M 94.792969 16.25 C 92.269531 16.28125 89.46875 17.390625 86.914063 19.941406 L 34.960938 70.910156 L 7.878906 70.910156 C 3.539063 70.910156 0 74.449219 0 78.789063 L 0 126.0625 C 0 130.398438 3.539063 133.9375 7.878906 133.9375 L 34.960938 133.9375 L 86.667969 184.660156 C 94.546875 192.539063 102.425781 188.507813 102.425781 177.765625 L 102.425781 25.851563 C 102.425781 19.605469 99.007813 16.21875 94.792969 16.25 Z M 151.914063 24.128906 C 148.464844 24.714844 145.820313 27.515625 145.417969 30.992188 C 145.050781 34.46875 146.957031 37.792969 150.1875 39.148438 C 173.332031 50.8125 189.089844 74.664063 189.089844 102.425781 C 189.089844 130.183594 173.332031 154.035156 150.1875 165.699219 C 147.296875 166.6875 145.265625 169.269531 144.925781 172.285156 C 144.589844 175.332031 146.035156 178.289063 148.652344 179.890625 C 151.234375 181.457031 154.527344 181.398438 157.082031 179.734375 C 185.367188 165.453125 204.847656 136.21875 204.847656 102.425781 C 204.847656 68.632813 185.367188 39.394531 157.082031 25.113281 C 155.730469 24.34375 154.191406 24.003906 152.652344 24.128906 C 152.40625 24.128906 152.160156 24.128906 151.914063 24.128906 Z M 134.925781 45.796875 C 131.414063 46.226563 128.613281 48.964844 128.121094 52.472656 C 127.597656 55.953125 129.476563 59.367188 132.707031 60.8125 C 147.511719 68.816406 157.574219 84.359375 157.574219 102.425781 C 157.574219 120.429688 147.664063 136.03125 132.953125 144.035156 C 130.125 145.140625 128.152344 147.757813 127.9375 150.804688 C 127.722656 153.851563 129.261719 156.746094 131.90625 158.253906 C 134.585938 159.730469 137.847656 159.578125 140.339844 157.820313 C 160.007813 147.140625 173.332031 126.308594 173.332031 102.425781 C 173.332031 78.480469 159.851563 57.675781 140.09375 47.027344 C 138.988281 46.320313 137.726563 45.886719 136.402344 45.796875 C 135.910156 45.734375 135.417969 45.734375 134.925781 45.796875 Z M 114.488281 71.648438 C 110.734375 72.261719 107.933594 75.496094 107.871094 79.3125 C 107.808594 83.128906 110.488281 86.421875 114.242188 87.160156 C 120.984375 88.914063 126.0625 95.039063 126.0625 102.425781 C 126.0625 109.8125 120.984375 115.933594 114.242188 117.6875 C 110.027344 118.765625 107.503906 123.074219 108.578125 127.292969 C 109.65625 131.507813 113.964844 134.03125 118.183594 132.953125 C 131.753906 129.414063 141.816406 117.011719 141.816406 102.425781 C 141.816406 87.835938 131.753906 75.433594 118.183594 71.894531 C 117.226563 71.617188 116.210938 71.554688 115.226563 71.648438 C 114.980469 71.648438 114.734375 71.648438 114.488281 71.648438 Z "/>
</g>
</svg>
