<?xml version="1.0" encoding="UTF-8"?>
<svg xmlns="http://www.w3.org/2000/svg" xmlns:xlink="http://www.w3.org/1999/xlink" width="208pt" height="208pt" viewBox="0 0 208 208" version="1.1">
<g id="surface1">
<path style=" stroke:none;fill-rule:nonzero;fill:#FFFFFF;fill-opacity:1;" d="M 94.792969 8.371094 C 92.269531 8.402344 89.46875 9.511719 86.914063 12.0625 L 41.855469 63.03125 L 7.878906 63.03125 C 3.539063 63.03125 0 66.570313 0 70.910156 L 0 133.9375 C 0 138.277344 3.539063 141.816406 7.878906 141.816406 L 41.855469 141.816406 L 86.667969 192.539063 C 94.546875 200.417969 102.425781 196.386719 102.425781 185.644531 L 102.425781 17.972656 C 102.425781 11.726563 99.007813 8.339844 94.792969 8.371094 Z M 151.914063 24.128906 C 148.464844 24.714844 145.820313 27.515625 145.417969 30.992188 C 145.050781 34.46875 146.957031 37.792969 150.1875 39.148438 C 173.332031 50.8125 189.089844 74.664063 189.089844 102.425781 C 189.089844 130.183594 173.332031 154.035156 150.1875 165.699219 C 147.296875 166.6875 145.265625 169.269531 144.925781 172.285156 C 144.589844 175.332031 146.035156 178.289063 148.652344 179.890625 C 151.234375 181.457031 154.527344 181.398438 157.082031 179.734375 C 185.367188 165.453125 204.847656 136.21875 204.847656 102.425781 C 204.847656 68.632813 185.367188 39.394531 157.082031 25.113281 C 155.730469 24.34375 154.191406 24.003906 152.652344 24.128906 C 152.40625 24.128906 152.160156 24.128906 151.914063 24.128906 Z M 133.199219 54.660156 C 129.722656 54.90625 126.828125 57.429688 126.089844 60.84375 C 125.351563 64.261719 126.921875 67.769531 130 69.433594 C 142.15625 76.972656 149.695313 88.945313 149.695313 102.425781 C 149.695313 115.996094 142.035156 128.121094 129.753906 135.664063 C 127.136719 137.046875 125.507813 139.785156 125.539063 142.742188 C 125.566406 145.695313 127.261719 148.375 129.9375 149.695313 C 132.585938 151.019531 135.753906 150.710938 138.125 148.957031 C 154.4375 138.957031 165.453125 121.9375 165.453125 102.425781 C 165.453125 83.035156 154.527344 65.921875 138.371094 55.890625 C 137.046875 55.058594 135.507813 54.628906 133.9375 54.660156 C 133.691406 54.660156 133.445313 54.660156 133.199219 54.660156 Z "/>
</g>
</svg>
