<?xml version="1.0" encoding="UTF-8"?>
<svg xmlns="http://www.w3.org/2000/svg" xmlns:xlink="http://www.w3.org/1999/xlink" width="208pt" height="208pt" viewBox="0 0 208 208" version="1.1">
<g id="surface1">
<path style=" stroke:none;fill-rule:nonzero;fill:#FFFFFF;fill-opacity:1;" d="M 126.308594 16.25 C 123.78125 16.28125 120.984375 17.390625 118.429688 19.941406 L 66.476563 70.910156 L 39.394531 70.910156 C 35.054688 70.910156 31.515625 74.449219 31.515625 78.789063 L 31.515625 126.0625 C 31.515625 130.398438 35.054688 133.9375 39.394531 133.9375 L 66.476563 133.9375 L 118.183594 184.660156 C 126.0625 192.539063 133.9375 188.507813 133.9375 177.765625 L 133.9375 25.851563 C 133.9375 19.605469 130.523438 16.21875 126.308594 16.25 Z M 146.003906 71.648438 C 142.25 72.261719 139.449219 75.496094 139.386719 79.3125 C 139.324219 83.128906 142.003906 86.421875 145.757813 87.160156 C 152.496094 88.914063 157.574219 95.039063 157.574219 102.425781 C 157.574219 109.8125 152.496094 115.933594 145.757813 117.6875 C 141.542969 118.765625 139.015625 123.074219 140.09375 127.292969 C 141.171875 131.507813 145.480469 134.03125 149.695313 132.953125 C 163.269531 129.414063 173.332031 117.011719 173.332031 102.425781 C 173.332031 87.835938 163.269531 75.433594 149.695313 71.894531 C 148.742188 71.617188 147.726563 71.554688 146.742188 71.648438 C 146.496094 71.648438 146.25 71.648438 146.003906 71.648438 Z "/>
</g>
</svg>
